<svg xmlns="http://www.w3.org/2000/svg" xmlns:xlink="http://www.w3.org/1999/xlink" viewBox="0 0 430 430" width="430" height="430" preserveAspectRatio="xMidYMid meet" style="width: 100%; height: 100%; transform: translate3d(0px, 0px, 0px); content-visibility: visible;"><defs><clipPath id="__lottie_element_4523"><rect width="430" height="430" x="0" y="0"/></clipPath><clipPath id="__lottie_element_4525"><path d="M0,0 L430,0 L430,430 L0,430z"/></clipPath><clipPath id="__lottie_element_4627"><path d="M0,0 L430,0 L430,430 L0,430z"/></clipPath><clipPath id="__lottie_element_4631"><path d="M0,0 L430,0 L430,430 L0,430z"/></clipPath><g id="__lottie_element_4634"><g clip-path="url(#__lottie_element_4635)" transform="matrix(1,0,0,1,10,-10)" opacity="1" style="display: block;"><g transform="matrix(1,0,0,1,55.00001525878906,464)" opacity="1" style="display: block;"><g opacity="1" transform="matrix(1,0,0,1,0,0)"><path class="secondary" fill="rgb(236,133,162)" fill-opacity="1" d=" M190.07200622558594,28.19300079345703 C190.44000244140625,22.576000213623047 193.4320068359375,17.652999877929688 197.82400512695312,14.640000343322754 C200.69400024414062,12.668999671936035 204.17599487304688,11.505000114440918 207.9040069580078,11.505000114440918 C211.6320037841797,11.505000114440918 215.58299255371094,12.932999610900879 217.98399353027344,14.640000343322754 C223.28399658203125,18.409000396728516 225.77699279785156,24.465999603271484 225.77699279785156,29.378000259399414 M190.04100036621094,28.097000122070312 C190.04100036621094,28.097000122070312 190.052001953125,97.82599639892578 190.052001953125,97.82599639892578 C190.052001953125,107.66100311279297 198.0989990234375,115.6989974975586 207.9239959716797,115.6989974975586 C217.75900268554688,115.6989974975586 225.7969970703125,107.66100311279297 225.7969970703125,97.82599639892578 C225.7969970703125,97.82599639892578 225.7969970703125,29.378000259399414 225.7969970703125,29.378000259399414"/></g></g><g transform="matrix(1,0,0,1,-16,502)" opacity="1" style="display: block;"><path class="secondary" fill="rgb(236,133,162)" fill-opacity="1" d=" M190.24899291992188,17.597000122070312 C190.24899291992188,17.597000122070312 190.29400634765625,18.826000213623047 190.29400634765625,18.826000213623047 C190.29400634765625,28.660999298095703 198.34100341796875,36.69900131225586 208.16600036621094,36.69900131225586 C218.00100708007812,36.69900131225586 226.03900146484375,28.660999298095703 226.03900146484375,18.826000213623047 C226.03900146484375,18.826000213623047 225.7449951171875,19.378000259399414 225.7449951171875,19.378000259399414 M225.72500610351562,19.378000259399414 C225.72500610351562,14.465999603271484 223.23199462890625,8.409000396728516 217.9320068359375,4.639999866485596 C215.531005859375,2.933000087738037 211.5800018310547,1.5049999952316284 207.8520050048828,1.5049999952316284 C204.12399291992188,1.5049999952316284 200.64199829101562,2.6689999103546143 197.77200317382812,4.639999866485596 C193.3800048828125,7.6529998779296875 190.38800048828125,12.576000213623047 190.02000427246094,18.19300079345703"/><g opacity="1" transform="matrix(1,0,0,1,0,0)"/></g></g></g><clipPath id="__lottie_element_4635"><path d="M0,0 L430,0 L430,430 L0,430z"/></clipPath><filter id="__lottie_element_4638" filterUnits="objectBoundingBox" x="0%" y="0%" width="100%" height="100%"><feComponentTransfer in="SourceGraphic"><feFuncA type="table" tableValues="1.0 0.0"/></feComponentTransfer></filter><mask id="__lottie_element_4634_2" mask-type="alpha"><g filter="url(#__lottie_element_4638)"><rect width="430" height="430" x="0" y="0" fill="#ffffff" opacity="0"/><use xmlns:ns1="http://www.w3.org/1999/xlink" ns1:href="#__lottie_element_4634"/></g></mask></defs><g clip-path="url(#__lottie_element_4523)"><g clip-path="url(#__lottie_element_4525)" transform="matrix(1,0,0,1,0,0)" opacity="1" style="display: block;"><g transform="matrix(1,0,0,1,-35,-26.5)" opacity="1" style="display: block;"><g opacity="1" transform="matrix(1,0,0,1,174.43099975585938,150.5070037841797)"><path stroke-linecap="round" stroke-linejoin="round" fill-opacity="0" class="tertiary" stroke="rgb(58,51,71)" stroke-opacity="1" stroke-width="6.864" d=" M-43.11899948120117,61.02000045776367 C-43.11899948120117,60.869998931884766 -43.11899948120117,60.720001220703125 -43.11899948120117,60.56999969482422 C-43.11899948120117,0.6399999856948853 -22.597999572753906,-49.38999938964844 43.11899948120117,-61.02000045776367"/></g><g opacity="1" transform="matrix(1,0,0,1,325.60101318359375,150.5070037841797)"><path stroke-linecap="round" stroke-linejoin="round" fill-opacity="0" class="tertiary" stroke="rgb(58,51,71)" stroke-opacity="1" stroke-width="6.867" d=" M-43.1510009765625,-61.02000045776367 C22.61400032043457,-49.38999938964844 43.1510009765625,0.6399999856948853 43.1510009765625,60.56999969482422 C43.1510009765625,60.720001220703125 43.1510009765625,60.869998931884766 43.1510009765625,61.02000045776367"/></g><g opacity="1" transform="matrix(1,0,0,1,0,0)"><g opacity="1" transform="matrix(1,0,0,1,250,86.65499877929688)"><path class="tertiary" fill="rgb(58,51,71)" fill-opacity="1" d=" M20.445999145507812,15.54800033569336 C20.445999145507812,15.54800033569336 -20.445999145507812,15.54800033569336 -20.445999145507812,15.54800033569336 C-27.04599952697754,15.54800033569336 -32.44599914550781,10.14799976348877 -32.44599914550781,3.5480000972747803 C-32.44599914550781,3.5480000972747803 -32.44599914550781,-3.5480000972747803 -32.44599914550781,-3.5480000972747803 C-32.44599914550781,-10.14799976348877 -27.04599952697754,-15.54800033569336 -20.445999145507812,-15.54800033569336 C-20.445999145507812,-15.54800033569336 20.445999145507812,-15.54800033569336 20.445999145507812,-15.54800033569336 C27.04599952697754,-15.54800033569336 32.44599914550781,-10.14799976348877 32.44599914550781,-3.5480000972747803 C32.44599914550781,-3.5480000972747803 32.44599914550781,3.5480000972747803 32.44599914550781,3.5480000972747803 C32.44599914550781,10.14799976348877 27.04599952697754,15.54800033569336 20.445999145507812,15.54800033569336z"/></g><g opacity="0.5" transform="matrix(1,0,0,1,249.75999450683594,87.46299743652344)" style="mix-blend-mode: multiply;"><path class="tertiary" fill="rgb(58,51,71)" fill-opacity="1" d=" M32.20500183105469,6.070000171661377 C30.7549991607666,11.0600004196167 26.135000228881836,14.739999771118164 20.684999465942383,14.739999771118164 C20.684999465942383,14.739999771118164 -20.204999923706055,14.739999771118164 -20.204999923706055,14.739999771118164 C-26.80500030517578,14.739999771118164 -32.20500183105469,9.34000015258789 -32.20500183105469,2.740000009536743 C-32.20500183105469,2.740000009536743 -32.20500183105469,-4.360000133514404 -32.20500183105469,-4.360000133514404 C-32.20500183105469,-8.770000457763672 -29.78499984741211,-12.649999618530273 -26.21500015258789,-14.739999771118164 C-26.524999618530273,-13.680000305175781 -26.69499969482422,-12.550000190734863 -26.69499969482422,-11.390000343322754 C-26.69499969482422,-11.390000343322754 -26.69499969482422,-4.289999961853027 -26.69499969482422,-4.289999961853027 C-26.69499969482422,2.309999942779541 -21.295000076293945,7.710000038146973 -14.694999694824219,7.710000038146973 C-14.694999694824219,7.710000038146973 26.19499969482422,7.710000038146973 26.19499969482422,7.710000038146973 C28.385000228881836,7.710000038146973 30.434999465942383,7.119999885559082 32.20500183105469,6.070000171661377z"/></g></g></g><g style="display: none;"><g><path stroke-linecap="round" stroke-linejoin="round" fill-opacity="0" class="tertiary"/></g><g><path stroke-linecap="round" stroke-linejoin="round" fill-opacity="0" class="tertiary"/></g><g><path stroke-linecap="round" stroke-linejoin="round" fill-opacity="0" class="tertiary"/></g></g><g transform="matrix(1,0,0,1,215,215)" opacity="1" style="display: block;"><g opacity="1" transform="matrix(1,0,0,1,0,0)"><path class="primary" fill="rgb(235,230,239)" fill-opacity="0" d=" M109.94400024414062,160.11900329589844 C109.94400024414062,160.11599731445312 60.720001220703125,160.11300659179688 0,160.11300659179688 C-60.720001220703125,160.11300659179688 -109.94400024414062,160.11599731445312 -109.94400024414062,160.11900329589844 C-109.94400024414062,160.1219940185547 -60.720001220703125,160.125 0,160.125 C60.720001220703125,160.125 109.94400024414062,160.1219940185547 109.94400024414062,160.11900329589844z"/><path class="primary" fill="rgb(235,230,239)" fill-opacity="0" d=" M109.94400024414062,160.11900329589844 C109.94400024414062,160.11599731445312 60.720001220703125,160.11300659179688 0,160.11300659179688 C-60.720001220703125,160.11300659179688 -109.94400024414062,160.11599731445312 -109.94400024414062,160.11900329589844 C-109.94400024414062,160.1219940185547 -60.720001220703125,160.125 0,160.125 C60.720001220703125,160.125 109.94400024414062,160.1219940185547 109.94400024414062,160.11900329589844z" style="mix-blend-mode: multiply;"/></g><g opacity="1" transform="matrix(1,0,0,1,-251,-240.99998474121094)"><g opacity="1" transform="matrix(1,0,0,1,249.9980010986328,318.24798583984375)"><path class="primary" fill="rgb(235,230,239)" fill-opacity="1" d=" M109.94499969482422,-82.96499633789062 C109.94499969482422,-82.96499633789062 109.94499969482422,79.80500030517578 109.94499969482422,79.80500030517578 C109.94499969482422,81.55000305175781 108.60199737548828,82.96499633789062 106.94499969482422,82.96499633789062 C106.94499969482422,82.96499633789062 -106.94499969482422,82.96499633789062 -106.94499969482422,82.96499633789062 C-108.60199737548828,82.96499633789062 -109.94499969482422,81.55000305175781 -109.94499969482422,79.80500030517578 C-109.94499969482422,79.80500030517578 -109.94499969482422,-82.96499633789062 -109.94499969482422,-82.96499633789062 C-109.94499969482422,-82.96499633789062 109.94499969482422,-82.96499633789062 109.94499969482422,-82.96499633789062z"/></g><g opacity="0.5" transform="matrix(1,0,0,1,249.42799377441406,326.9830017089844)" style="mix-blend-mode: multiply;"><path class="primary" fill="rgb(235,230,239)" fill-opacity="1" d=" M109.375,74.2300033569336 C109.375,74.2300033569336 -106.375,74.2300033569336 -106.375,74.2300033569336 C-108.03199768066406,74.2300033569336 -109.375,72.88700103759766 -109.375,71.2300033569336 C-109.375,71.2300033569336 -109.375,-74.2300033569336 -109.375,-74.2300033569336 C-109.375,28.680999755859375 -59.025001525878906,74.2300033569336 109.375,74.2300033569336z"/></g></g><g opacity="1" transform="matrix(1,0,0,1,-0.0020000000949949026,-10.656000137329102)"><path class="primary" fill="rgb(235,230,239)" fill-opacity="1" d=" M122.25,-16.829999923706055 C122.25,-16.829999923706055 122.25,10.329999923706055 122.25,10.329999923706055 C122.25,11.987000465393066 120.90699768066406,13.329999923706055 119.25,13.329999923706055 C119.25,13.329999923706055 41.332000732421875,13.329999923706055 2.372999906539917,13.329999923706055 C-38.0880012512207,13.329999923706055 -119.01000213623047,13.329999923706055 -119.01000213623047,13.329999923706055 C-120.66699981689453,13.329999923706055 -122.01000213623047,11.987000465393066 -122.01000213623047,10.329999923706055 C-122.01000213623047,10.329999923706055 -122.01000213623047,-16.829999923706055 -122.01000213623047,-16.829999923706055 C-122.01000213623047,-18.48699951171875 -120.66699981689453,-19.829999923706055 -119.01000213623047,-19.829999923706055 C-119.01000213623047,-19.829999923706055 -39.255001068115234,-19.829999923706055 0.621999979019165,-19.829999923706055 C40.165000915527344,-19.829999923706055 119.25,-19.829999923706055 119.25,-19.829999923706055 C120.90699768066406,-19.829999923706055 122.25,-18.48699951171875 122.25,-16.829999923706055z"/><path class="primary" fill="rgb(235,230,239)" fill-opacity="0.5" d=" M122.25,-16.829999923706055 C122.25,-16.829999923706055 122.25,10.329999923706055 122.25,10.329999923706055 C122.25,11.987000465393066 120.90699768066406,13.329999923706055 119.25,13.329999923706055 C119.25,13.329999923706055 41.332000732421875,13.329999923706055 2.372999906539917,13.329999923706055 C-38.0880012512207,13.329999923706055 -119.01000213623047,13.329999923706055 -119.01000213623047,13.329999923706055 C-120.66699981689453,13.329999923706055 -122.01000213623047,11.987000465393066 -122.01000213623047,10.329999923706055 C-122.01000213623047,10.329999923706055 -122.01000213623047,-16.829999923706055 -122.01000213623047,-16.829999923706055 C-122.01000213623047,-18.48699951171875 -120.66699981689453,-19.829999923706055 -119.01000213623047,-19.829999923706055 C-119.01000213623047,-19.829999923706055 -39.255001068115234,-19.829999923706055 0.621999979019165,-19.829999923706055 C40.165000915527344,-19.829999923706055 119.25,-19.829999923706055 119.25,-19.829999923706055 C120.90699768066406,-19.829999923706055 122.25,-18.48699951171875 122.25,-16.829999923706055z" style="mix-blend-mode: multiply;"/></g><g opacity="0" transform="matrix(1,0,0,1,0,0)"><g opacity="1" transform="matrix(1,0,0,1,0,0)"><path class="primary" fill="rgb(235,230,239)" fill-opacity="1" d=" M122.125,-31.02899932861328 C122.125,-31.020999908447266 109.86199951171875,-31.013999938964844 89.78700256347656,-31.009000778198242 C67.47200012207031,-31.003000259399414 35.50600051879883,-31 0,-31 C-22.799999237060547,-31 -44.13999938964844,-31.000999450683594 -62.40299987792969,-31.003999710083008 C-98.16600036621094,-31.009000778198242 -122.125,-31.01799964904785 -122.125,-31.02899932861328 C-122.125,-31.045000076293945 -67.447998046875,-31.058000564575195 0,-31.058000564575195 C67.447998046875,-31.058000564575195 122.125,-31.045000076293945 122.125,-31.02899932861328z"/><path class="primary" fill="rgb(235,230,239)" fill-opacity="1" d=" M122.125,-31.02899932861328 C122.125,-31.020999908447266 109.86199951171875,-31.013999938964844 89.78700256347656,-31.009000778198242 C67.47200012207031,-31.003000259399414 35.50600051879883,-31 0,-31 C-22.799999237060547,-31 -44.13999938964844,-31.000999450683594 -62.40299987792969,-31.003999710083008 C-98.16600036621094,-31.009000778198242 -122.125,-31.01799964904785 -122.125,-31.02899932861328 C-122.125,-31.045000076293945 -67.447998046875,-31.058000564575195 0,-31.058000564575195 C67.447998046875,-31.058000564575195 122.125,-31.045000076293945 122.125,-31.02899932861328z" style="mix-blend-mode: multiply;"/></g></g></g><g transform="matrix(1,0,0,1,-35.00001525878906,-27.499984741210938)" opacity="1" style="display: block;"><g opacity="1" transform="matrix(1,0,0,1,262.37200927734375,284.06298828125)"><path class="secondary" fill="rgb(236,133,162)" fill-opacity="1" d=" M53.595001220703125,-73.24500274658203 C53.595001220703125,-73.24500274658203 53.584999084472656,-40.224998474121094 53.584999084472656,-40.224998474121094 C53.584999084472656,-40.224998474121094 53.584999084472656,55.3650016784668 53.584999084472656,55.3650016784668 C53.584999084472656,65.20500183105469 45.54499816894531,73.24500274658203 35.70500183105469,73.24500274658203 C25.885000228881836,73.24500274658203 17.834999084472656,65.20500183105469 17.834999084472656,55.3650016784668 C17.834999084472656,55.3650016784668 17.834999084472656,-13.085000038146973 17.834999084472656,-13.085000038146973 C17.834999084472656,-17.9950008392334 15.345000267028809,-24.045000076293945 10.045000076293945,-27.815000534057617 C7.644999980926514,-29.524999618530273 3.694999933242798,-30.954999923706055 -0.03500000014901161,-30.954999923706055 C-3.765000104904175,-30.954999923706055 -7.244999885559082,-29.78499984741211 -10.114999771118164,-27.815000534057617 C-14.505000114440918,-24.80500030517578 -17.4950008392334,-19.885000228881836 -17.864999771118164,-14.265000343322754 C-18.485000610351562,-4.985000133514404 -26.28499984741211,2.684999942779541 -35.71500015258789,2.684999942779541 C-45.54499816894531,2.684999942779541 -53.595001220703125,-5.355000019073486 -53.595001220703125,-15.1850004196167 C-53.595001220703125,-15.1850004196167 -53.584999084472656,-40.224998474121094 -53.584999084472656,-40.224998474121094 C-53.584999084472656,-40.224998474121094 -53.564998626708984,-73.24500274658203 -53.564998626708984,-73.24500274658203 C-53.564998626708984,-73.24500274658203 -17.770000457763672,-73.24500274658203 0.12800000607967377,-73.24500274658203 C17.950000762939453,-73.24500274658203 53.595001220703125,-73.24500274658203 53.595001220703125,-73.24500274658203z"/></g><g opacity="0.5" transform="matrix(1,0,0,1,226.64700317382812,261.02801513671875)" style="mix-blend-mode: multiply;"><path class="secondary" fill="rgb(236,133,162)" fill-opacity="1" d=" M17.665000915527344,8.739999771118164 C17.735000610351562,8.710000038146973 17.795000076293945,8.670000076293945 17.864999771118164,8.630000114440918 C17.854999542236328,8.729999542236328 17.854999542236328,8.819999694824219 17.834999084472656,8.920000076293945 C17.084999084472656,18.06999969482422 9.345000267028809,25.579999923706055 0.014999999664723873,25.579999923706055 C-9.8149995803833,25.579999923706055 -17.864999771118164,17.540000915527344 -17.864999771118164,7.710000038146973 C-17.864999771118164,7.710000038146973 -17.854999542236328,-17.329999923706055 -17.854999542236328,-17.329999923706055 C-17.854999542236328,-17.329999923706055 -17.854999542236328,-25.579999923706055 -17.854999542236328,-25.579999923706055 C-17.545000076293945,-22.68000030517578 -11.994999885559082,25.719999313354492 17.665000915527344,8.739999771118164z"/></g><g opacity="0.5" transform="matrix(1,0,0,1,298.0870056152344,334.072998046875)" style="mix-blend-mode: multiply;"><path class="secondary" fill="rgb(236,133,162)" fill-opacity="1" d=" M17.875,5.215000152587891 C17.875,15.055000305175781 9.835000038146973,23.094999313354492 -0.004999999888241291,23.094999313354492 C-9.824999809265137,23.094999313354492 -17.875,15.055000305175781 -17.875,5.215000152587891 C-17.875,5.215000152587891 -17.875,-23.094999313354492 -17.875,-23.094999313354492 C-17.875,-23.094999313354492 -12.975000381469727,28.71500015258789 17.875,5.215000152587891z"/></g></g><g style="display: none;"><g><path class="primary"/></g></g><g clip-path="url(#__lottie_element_4627)" transform="matrix(1,0,0,1,0,0)" opacity="1" style="display: block;"><g transform="matrix(1,0,0,1,55.00001525878906,464)" opacity="1" style="display: block;"><g opacity="1" transform="matrix(1,0,0,1,0,0)"><path class="secondary" fill="rgb(236,133,162)" fill-opacity="1" d=" M190.07200622558594,28.19300079345703 C190.44000244140625,22.576000213623047 193.4320068359375,17.652999877929688 197.82400512695312,14.640000343322754 C200.69400024414062,12.668999671936035 204.17599487304688,11.505000114440918 207.9040069580078,11.505000114440918 C211.6320037841797,11.505000114440918 215.58299255371094,12.932999610900879 217.98399353027344,14.640000343322754 C223.28399658203125,18.409000396728516 225.77699279785156,24.465999603271484 225.77699279785156,29.378000259399414 M190.04100036621094,28.097000122070312 C190.04100036621094,28.097000122070312 190.052001953125,97.82599639892578 190.052001953125,97.82599639892578 C190.052001953125,107.66100311279297 198.0989990234375,115.6989974975586 207.9239959716797,115.6989974975586 C217.75900268554688,115.6989974975586 225.7969970703125,107.66100311279297 225.7969970703125,97.82599639892578 C225.7969970703125,97.82599639892578 225.7969970703125,29.378000259399414 225.7969970703125,29.378000259399414"/></g></g><g transform="matrix(1,0,0,1,-16,502)" opacity="1" style="display: block;"><path class="secondary" fill="rgb(236,133,162)" fill-opacity="1" d=" M190.24899291992188,17.597000122070312 C190.24899291992188,17.597000122070312 190.29400634765625,18.826000213623047 190.29400634765625,18.826000213623047 C190.29400634765625,28.660999298095703 198.34100341796875,36.69900131225586 208.16600036621094,36.69900131225586 C218.00100708007812,36.69900131225586 226.03900146484375,28.660999298095703 226.03900146484375,18.826000213623047 C226.03900146484375,18.826000213623047 225.7449951171875,19.378000259399414 225.7449951171875,19.378000259399414 M225.72500610351562,19.378000259399414 C225.72500610351562,14.465999603271484 223.23199462890625,8.409000396728516 217.9320068359375,4.639999866485596 C215.531005859375,2.933000087738037 211.5800018310547,1.5049999952316284 207.8520050048828,1.5049999952316284 C204.12399291992188,1.5049999952316284 200.64199829101562,2.6689999103546143 197.77200317382812,4.639999866485596 C193.3800048828125,7.6529998779296875 190.38800048828125,12.576000213623047 190.02000427246094,18.19300079345703"/><g opacity="1" transform="matrix(1,0,0,1,0,0)"/></g></g><g mask="url(#__lottie_element_4634_2)" style="mix-blend-mode: multiply; display: block;"><g clip-path="url(#__lottie_element_4631)" transform="matrix(1,0,0,1,0,0)" opacity="0.5"><g transform="matrix(1,0,0,1,55.00001525878906,464)" opacity="1" style="display: block;"><g opacity="1" transform="matrix(1,0,0,1,0,0)"><path class="secondary" fill="rgb(236,133,162)" fill-opacity="1" d=" M190.07200622558594,28.19300079345703 C190.44000244140625,22.576000213623047 193.4320068359375,17.652999877929688 197.82400512695312,14.640000343322754 C200.69400024414062,12.668999671936035 204.17599487304688,11.505000114440918 207.9040069580078,11.505000114440918 C211.6320037841797,11.505000114440918 215.58299255371094,12.932999610900879 217.98399353027344,14.640000343322754 C223.28399658203125,18.409000396728516 225.77699279785156,24.465999603271484 225.77699279785156,29.378000259399414 M190.04100036621094,28.097000122070312 C190.04100036621094,28.097000122070312 190.052001953125,97.82599639892578 190.052001953125,97.82599639892578 C190.052001953125,107.66100311279297 198.0989990234375,115.6989974975586 207.9239959716797,115.6989974975586 C217.75900268554688,115.6989974975586 225.7969970703125,107.66100311279297 225.7969970703125,97.82599639892578 C225.7969970703125,97.82599639892578 225.7969970703125,29.378000259399414 225.7969970703125,29.378000259399414"/></g></g><g transform="matrix(1,0,0,1,-16,502)" opacity="1" style="display: block;"><path class="secondary" fill="rgb(236,133,162)" fill-opacity="1" d=" M190.24899291992188,17.597000122070312 C190.24899291992188,17.597000122070312 190.29400634765625,18.826000213623047 190.29400634765625,18.826000213623047 C190.29400634765625,28.660999298095703 198.34100341796875,36.69900131225586 208.16600036621094,36.69900131225586 C218.00100708007812,36.69900131225586 226.03900146484375,28.660999298095703 226.03900146484375,18.826000213623047 C226.03900146484375,18.826000213623047 225.7449951171875,19.378000259399414 225.7449951171875,19.378000259399414 M225.72500610351562,19.378000259399414 C225.72500610351562,14.465999603271484 223.23199462890625,8.409000396728516 217.9320068359375,4.639999866485596 C215.531005859375,2.933000087738037 211.5800018310547,1.5049999952316284 207.8520050048828,1.5049999952316284 C204.12399291992188,1.5049999952316284 200.64199829101562,2.6689999103546143 197.77200317382812,4.639999866485596 C193.3800048828125,7.6529998779296875 190.38800048828125,12.576000213623047 190.02000427246094,18.19300079345703"/><g opacity="1" transform="matrix(1,0,0,1,0,0)"/></g></g></g></g></g></svg>